<?xml version="1.0" encoding="UTF-8"?>
<!DOCTYPE svg PUBLIC "-//W3C//DTD SVG 1.1//EN" "http://www.w3.org/Graphics/SVG/1.1/DTD/svg11.dtd">
<svg version="1.1" xmlns="http://www.w3.org/2000/svg" xmlns:xlink="http://www.w3.org/1999/xlink" x="0" y="0" width="256" height="228" viewBox="0, 0, 256, 228">
  <g id="Background">
    <rect x="0" y="0" width="256" height="228" fill="#000000" fill-opacity="0"/>
  </g>
  <g id="Layer_1">
    <path d="M210.483,73.824 C207.828,72.91 205.076,72.045 202.242,71.227 C202.708,69.326 203.136,67.45 203.516,65.606 C209.754,35.325 205.675,10.93 191.747,2.898 C178.392,-4.803 156.551,3.227 134.493,22.424 C132.372,24.27 130.245,26.224 128.118,28.272 C126.702,26.917 125.287,25.608 123.877,24.355 C100.759,3.829 77.587,-4.822 63.673,3.233 C50.33,10.957 46.379,33.89 51.995,62.588 C52.537,65.36 53.171,68.191 53.887,71.069 C50.608,72 47.442,72.992 44.413,74.048 C17.309,83.497 0,98.307 0,113.668 C0,129.533 18.582,145.446 46.812,155.095 C49.039,155.857 51.351,156.577 53.733,157.26 C52.96,160.373 52.288,163.423 51.723,166.398 C46.369,194.598 50.55,216.989 63.857,224.664 C77.601,232.59 100.669,224.443 123.13,204.809 C124.906,203.257 126.687,201.611 128.472,199.886 C130.786,202.114 133.095,204.222 135.393,206.2 C157.15,224.922 178.638,232.482 191.932,224.786 C205.663,216.837 210.126,192.783 204.332,163.518 C203.89,161.283 203.375,159 202.797,156.676 C204.417,156.197 206.007,155.702 207.557,155.188 C236.905,145.465 256,129.745 256,113.668 C256,98.251 238.132,83.342 210.483,73.824 L210.483,73.824 z M204.118,144.808 C202.718,145.271 201.282,145.719 199.818,146.153 C196.578,135.896 192.206,124.99 186.855,113.721 C191.961,102.721 196.165,91.954 199.314,81.764 C201.933,82.522 204.474,83.321 206.924,84.164 C230.613,92.32 245.064,104.377 245.064,113.668 C245.064,123.564 229.458,136.411 204.118,144.808 L204.118,144.808 z M193.604,165.642 C196.166,178.583 196.531,190.283 194.835,199.429 C193.31,207.648 190.244,213.127 186.452,215.322 C178.385,219.991 161.132,213.921 142.525,197.91 C140.392,196.074 138.244,194.115 136.088,192.04 C143.302,184.151 150.511,174.98 157.547,164.794 C169.923,163.696 181.615,161.9 192.218,159.449 C192.74,161.556 193.204,163.622 193.604,165.642 L193.604,165.642 z M87.276,214.515 C79.394,217.298 73.116,217.378 69.321,215.19 C61.246,210.533 57.889,192.554 62.468,168.438 C62.993,165.676 63.617,162.839 64.337,159.939 C74.823,162.258 86.43,163.927 98.835,164.933 C105.919,174.9 113.336,184.061 120.811,192.083 C119.178,193.659 117.551,195.16 115.934,196.575 C106.001,205.257 96.048,211.417 87.276,214.515 L87.276,214.515 z M50.349,144.747 C37.866,140.48 27.557,134.935 20.491,128.884 C14.141,123.447 10.936,118.048 10.936,113.668 C10.936,104.346 24.833,92.456 48.012,84.375 C50.825,83.394 53.769,82.47 56.824,81.602 C60.028,92.022 64.23,102.917 69.301,113.934 C64.164,125.115 59.902,136.183 56.667,146.726 C54.489,146.099 52.379,145.44 50.349,144.747 L50.349,144.747 z M62.727,60.488 C57.916,35.9 61.111,17.353 69.152,12.698 C77.716,7.74 96.654,14.809 116.615,32.533 C117.891,33.666 119.172,34.851 120.456,36.078 C113.018,44.065 105.669,53.157 98.648,63.066 C86.608,64.182 75.083,65.974 64.487,68.375 C63.821,65.695 63.231,63.062 62.727,60.488 L62.727,60.488 z M173.154,87.755 C170.621,83.38 168.02,79.108 165.369,74.952 C173.537,75.985 181.363,77.356 188.712,79.033 C186.506,86.104 183.756,93.497 180.519,101.077 C178.196,96.668 175.74,92.223 173.154,87.755 L173.154,87.755 z M128.122,43.894 C133.166,49.359 138.218,55.46 143.187,62.08 C138.18,61.844 133.111,61.721 128,61.721 C122.937,61.721 117.906,61.841 112.93,62.074 C117.904,55.515 122.999,49.422 128.122,43.894 L128.122,43.894 z M82.802,87.831 C80.272,92.218 77.861,96.639 75.575,101.069 C72.391,93.516 69.666,86.089 67.441,78.917 C74.745,77.283 82.534,75.946 90.65,74.933 C87.961,79.127 85.339,83.43 82.802,87.83 L82.802,87.831 L82.802,87.831 z M90.883,153.183 C82.498,152.247 74.592,150.98 67.29,149.39 C69.551,142.091 72.335,134.505 75.588,126.79 C77.879,131.216 80.299,135.638 82.845,140.036 L82.846,140.036 C85.439,144.515 88.126,148.904 90.883,153.183 L90.883,153.183 z M128.425,184.213 C123.241,178.621 118.071,172.434 113.022,165.78 C117.924,165.972 122.921,166.071 128,166.071 C133.218,166.071 138.376,165.953 143.453,165.727 C138.468,172.501 133.435,178.697 128.425,184.213 L128.425,184.213 z M180.623,126.396 C184.045,134.195 186.929,141.741 189.219,148.916 C181.797,150.61 173.783,151.974 165.339,152.987 C167.997,148.776 170.62,144.43 173.198,139.961 C175.805,135.438 178.282,130.909 180.623,126.396 L180.623,126.396 z M163.725,134.497 C159.723,141.436 155.614,148.059 151.444,154.312 C143.847,154.855 135.999,155.135 128,155.135 C120.033,155.135 112.284,154.887 104.822,154.403 C100.483,148.068 96.285,141.425 92.309,134.557 L92.31,134.557 C88.344,127.707 84.694,120.799 81.387,113.93 C84.693,107.046 88.334,100.13 92.277,93.293 L92.276,93.294 C96.229,86.439 100.39,79.828 104.689,73.533 C112.302,72.957 120.11,72.657 128,72.657 L128,72.657 C135.926,72.657 143.743,72.96 151.354,73.54 C155.587,79.789 159.72,86.378 163.689,93.235 C167.703,100.169 171.39,107.038 174.725,113.775 C171.4,120.628 167.721,127.567 163.725,134.497 L163.725,134.497 z M186.285,12.373 C194.857,17.317 198.191,37.254 192.805,63.399 C192.461,65.067 192.075,66.766 191.654,68.488 C181.033,66.037 169.5,64.214 157.425,63.081 C150.391,53.064 143.102,43.957 135.785,36.073 C137.752,34.181 139.716,32.376 141.673,30.673 C160.572,14.226 178.237,7.732 186.285,12.373 L186.285,12.373 z M128,90.808 C140.625,90.808 150.86,101.043 150.86,113.668 C150.86,126.293 140.625,136.528 128,136.528 C115.375,136.528 105.14,126.293 105.14,113.668 C105.14,101.043 115.375,90.808 128,90.808 L128,90.808 z" fill="#48CFFC" fill-opacity="0.196"/>
  </g>
</svg>
